ModelForces
version=1
nRows=4
nColumns=155
inDegrees=no

This file contains the forces exerted on a model during a simulation.

A force is a generalized force, meaning that it can be either a force (N) or a torque (Nm).

Units are S.I. units (second, meters, Newtons, ...)
Angles are in degrees.

endheader
time	glut_med1_r	glut_med2_r	glut_med3_r	glut_min1_r	glut_min2_r	glut_min3_r	semimem_r	semiten_r	bifemlh_r	bifemsh_r	sar_r	add_long_r	add_brev_r	add_mag1_r	add_mag2_r	add_mag3_r	tfl_r	pect_r	grac_r	glut_max1_r	glut_max2_r	glut_max3_r	iliacus_r	psoas_r	quad_fem_r	gem_r	peri_r	rect_fem_r	vas_med_r	vas_int_r	vas_lat_r	med_gas_r	lat_gas_r	soleus_r	tib_post_r	flex_dig_r	flex_hal_r	tib_ant_r	per_brev_r	per_long_r	per_tert_r	ext_dig_r	ext_hal_r	glut_med1_l	glut_med2_l	glut_med3_l	glut_min1_l	glut_min2_l	glut_min3_l	semimem_l	semiten_l	bifemlh_l	bifemsh_l	sar_l	add_long_l	add_brev_l	add_mag1_l	add_mag2_l	add_mag3_l	tfl_l	pect_l	grac_l	glut_max1_l	glut_max2_l	glut_max3_l	iliacus_l	psoas_l	quad_fem_l	gem_l	peri_l	rect_fem_l	vas_med_l	vas_int_l	vas_lat_l	med_gas_l	lat_gas_l	soleus_l	tib_post_l	flex_dig_l	flex_hal_l	tib_ant_l	per_brev_l	per_long_l	per_tert_l	ext_dig_l	ext_hal_l	ercspn_r	ercspn_l	intobl_r	intobl_l	extobl_r	extobl_l	femur_lat_meniscii_r.femur_lat_r.force.X	femur_lat_meniscii_r.femur_lat_r.force.Y	femur_lat_meniscii_r.femur_lat_r.force.Z	femur_lat_meniscii_r.femur_lat_r.torque.X	femur_lat_meniscii_r.femur_lat_r.torque.Y	femur_lat_meniscii_r.femur_lat_r.torque.Z	femur_lat_meniscii_r.meniscus_lat_r.force.X	femur_lat_meniscii_r.meniscus_lat_r.force.Y	femur_lat_meniscii_r.meniscus_lat_r.force.Z	femur_lat_meniscii_r.meniscus_lat_r.torque.X	femur_lat_meniscii_r.meniscus_lat_r.torque.Y	femur_lat_meniscii_r.meniscus_lat_r.torque.Z	femur_med_meniscii_r.femur_med_r.force.X	femur_med_meniscii_r.femur_med_r.force.Y	femur_med_meniscii_r.femur_med_r.force.Z	femur_med_meniscii_r.femur_med_r.torque.X	femur_med_meniscii_r.femur_med_r.torque.Y	femur_med_meniscii_r.femur_med_r.torque.Z	femur_med_meniscii_r.meniscus_med_r.force.X	femur_med_meniscii_r.meniscus_med_r.force.Y	femur_med_meniscii_r.meniscus_med_r.force.Z	femur_med_meniscii_r.meniscus_med_r.torque.X	femur_med_meniscii_r.meniscus_med_r.torque.Y	femur_med_meniscii_r.meniscus_med_r.torque.Z	femur_med_tibia_r.tibia_upper_r.force.X	femur_med_tibia_r.tibia_upper_r.force.Y	femur_med_tibia_r.tibia_upper_r.force.Z	femur_med_tibia_r.tibia_upper_r.torque.X	femur_med_tibia_r.tibia_upper_r.torque.Y	femur_med_tibia_r.tibia_upper_r.torque.Z	femur_med_tibia_r.femur_med_r.force.X	femur_med_tibia_r.femur_med_r.force.Y	femur_med_tibia_r.femur_med_r.force.Z	femur_med_tibia_r.femur_med_r.torque.X	femur_med_tibia_r.femur_med_r.torque.Y	femur_med_tibia_r.femur_med_r.torque.Z	femur_lat_tibia_r.tibia_upper_r.force.X	femur_lat_tibia_r.tibia_upper_r.force.Y	femur_lat_tibia_r.tibia_upper_r.force.Z	femur_lat_tibia_r.tibia_upper_r.torque.X	femur_lat_tibia_r.tibia_upper_r.torque.Y	femur_lat_tibia_r.tibia_upper_r.torque.Z	femur_lat_tibia_r.femur_lat_r.force.X	femur_lat_tibia_r.femur_lat_r.force.Y	femur_lat_tibia_r.femur_lat_r.force.Z	femur_lat_tibia_r.femur_lat_r.torque.X	femur_lat_tibia_r.femur_lat_r.torque.Y	femur_lat_tibia_r.femur_lat_r.torque.Z	aACL_R	pACL_R	aPCL_R	pPCL_R	aMCL_R	mMCL_R	pMCL_R	aLCL_R	mLCL_R	pLCL_R	aPCL_L	pPCL_L	aMCL_L	aLCL_L
      0.20773911	      9.76630485	      7.18523415	      7.71397060	      3.33823512	      3.91649933	      4.12910043	      0.00000000	    162.92993495	    181.13766492	    339.04506095	    122.39913247	      7.13864915	      5.18813826	      3.69589602	      3.12460876	      5.20124830	      3.35823130	      2.81489968	     92.54927726	      4.63725988	      7.05187116	      5.28640805	     25.41573361	     16.10081332	      4.57600832	      3.30532773	      5.60058783	    110.69242846	     40.41289895	     31.12688367	     55.65764572	      0.00000000	      0.00000000	      0.00000000	      0.00000000	      0.00000000	      0.00000000	     35.76637961	      1.42527442	      3.21574372	     23.34066796	     49.70568632	     12.12413984	      9.76630485	      7.18523415	      7.71397060	      3.33823512	      3.91649933	      4.12910043	     10.55076981	      5.27150421	     10.32199035	      9.10655257	      1.90599796	      7.13864915	      5.18813826	      3.69589602	      3.12460876	      5.20124830	      4.84865904	      2.81489968	      1.96264613	      4.63725988	      7.05187116	      5.28640805	     25.41573361	     16.10081332	      4.57600832	      3.30532773	      5.60058783	     14.28588655	      0.00000000	      0.00000000	      0.00000000	     19.41772001	      9.07365970	     43.24295665	     47.39016743	      4.23184219	      3.68723096	     11.19180056	      5.92446672	     15.90517154	      2.49053112	      7.89605436	      2.52835244	     31.41155378	     31.41155378	     11.53315748	     11.53315748	     29.08327266	     29.08327266	    155.04940390	     93.30487204	      7.91969747	     -5.28727657	      3.59906865	     61.61551710	   -155.04940390	    -93.30487204	     -7.91969747	      2.41165204	     -4.21948077	      1.99188010	      0.06847100	      0.00223754	     -0.04439338	      0.01769344	     -0.00107306	      0.02723058	     -0.06847100	     -0.00223754	      0.04439338	     -0.00019559	      0.00208970	     -0.00019119	   -885.48740298	   -378.58091485	    315.24824589	     -8.59322447	     21.71517171	      2.15474130	    885.48740298	    378.58091485	   -315.24824589	    133.80174337	    -15.54375162	    356.94939195	   -304.71405450	   -141.76053032	    -83.30187695	      4.61580165	    -10.51956675	      1.02070923	    304.71405450	    141.76053032	     83.30187695	    -37.06648712	      7.47481485	    122.86372125	      1.36841209	      0.00000000	    951.65165468	    600.24858406	     24.43105013	      9.70835910	      0.00000000	      0.00000000	      0.00000000	      0.00000000	      0.00000000	      0.00000000	      0.00000001	      0.00000000
      0.20827236	      9.75084904	      7.17467137	      7.70249038	      3.33353404	      3.91137729	      4.12256437	      0.00000000	    163.23558685	    181.55519393	    339.45244142	    122.43303536	      7.12803118	      5.18089995	      3.69050498	      3.11993196	      5.19276728	      3.35440216	      2.81090826	     92.62540698	      4.63042830	      7.04145512	      5.27846715	     25.39639931	     16.07882003	      4.56942229	      3.30215714	      5.59223414	    109.49670008	     40.54771273	     30.82329469	     55.80385979	      0.00000000	      0.00000000	      0.00000000	      0.00000000	      0.00000000	      0.00000000	     35.75055898	      1.39056880	      3.16887817	     23.20542623	     49.44415248	     12.04235500	      9.75084904	      7.17467137	      7.70249038	      3.33353404	      3.91137729	      4.12256437	     10.56234706	      5.26320895	     10.30404176	      9.09343360	      1.90332636	      7.12803118	      5.18089995	      3.69050498	      3.11993196	      5.19276728	      4.84341067	      2.81090826	      1.95984653	      4.63042830	      7.04145512	      5.27846715	     25.39639931	     16.07882003	      4.56942229	      3.30215714	      5.59223414	     14.26090586	      0.00000000	      0.00000000	      0.00000000	     19.39221869	      9.06098148	     43.16604406	     47.35637279	      4.21576440	      3.67271402	     11.17284434	      5.91369506	     15.88303157	      2.48713766	      7.88861822	      2.52619082	     31.36721752	     31.36721752	     11.51549453	     11.51549453	     29.06734650	     29.06734650	    154.20988350	     93.63557304	      8.30774605	     -5.45152988	      3.57974930	     61.25766261	   -154.20988350	    -93.63557304	     -8.30774605	      2.42420583	     -4.21090117	      2.04970776	      0.06234778	      0.00330734	     -0.03768068	      0.01502728	     -0.00095566	      0.02477841	     -0.06234778	     -0.00330734	      0.03768068	     -0.00016743	      0.00180870	     -0.00011592	   -889.67874472	   -376.52180866	    315.84433717	     -8.51241184	     21.77904637	      2.20909764	    889.67874472	    376.52180866	   -315.84433717	    133.98971544	    -15.59716688	    358.60820696	   -304.94896112	   -139.48850838	    -83.30544286	      4.54813856	    -10.53414157	      0.98972011	    304.94896112	    139.48850838	     83.30544286	    -37.01341144	      7.48013273	    122.96677085	      1.05720778	      0.00000000	    955.76085438	    603.13707867	     24.15223875	      9.52887219	      0.00000000	      0.00000000	      0.00000000	      0.00000000	      0.00000000	      0.00000000	      0.00000001	      0.00000000
      0.20883578	      9.73463615	      7.16359192	      7.69044880	      3.32860274	      3.90600466	      4.11570885	      0.00000000	    163.57251204	    181.97176772	    339.78840841	    122.46422558	      7.11689402	      5.17330706	      3.68484910	      3.11502658	      5.18387181	      3.35054221	      2.80672142	     92.70569234	      4.62326271	      7.03052984	      5.27013812	     25.37612062	     16.05575346	      4.56251394	      3.29883191	      5.58342972	    114.00502671	     40.67585004	     32.22868226	     55.93593216	      0.00000000	      0.00000000	      0.00000000	      0.00000000	      0.00000000	      0.00000000	     35.73534182	      1.35414890	      3.11810744	     23.08055677	     49.17885331	     11.95973296	      9.73463615	      7.16359192	      7.69044880	      3.32860274	      3.90600466	      4.11570885	     10.57354985	      5.25450830	     10.28520563	      9.07967263	      1.90052391	      7.11689402	      5.17330706	      3.68484910	      3.11502658	      5.18387181	      4.83790569	      2.80672142	      1.95690988	      4.62326271	      7.03052984	      5.27013812	     25.37612062	     16.05575346	      4.56251394	      3.29883191	      5.58342972	     14.23470010	      0.00000000	      0.00000000	      0.00000000	     19.36528068	      9.04760168	     43.08524094	     47.32090673	      4.19880652	      3.65748612	     11.15295734	      5.90239236	     15.85978451	      2.48357851	      7.88073954	      2.52388729	     31.32071015	     31.32071015	     11.49696824	     11.49696824	     29.05064263	     29.05064263	    154.77929725	     93.86177475	      9.11735212	     -5.78516667	      3.60496775	     61.47867031	   -154.77929725	    -93.86177475	     -9.11735212	      2.43956725	     -4.26208850	      2.08233288	      0.05251878	      0.00083100	     -0.03299615	      0.01313500	     -0.00081695	      0.02088522	     -0.05251878	     -0.00083100	      0.03299615	     -0.00012420	      0.00157057	     -0.00015742	   -893.45627330	   -372.06270533	    316.49669917	     -8.39464515	     21.84233923	      2.18636628	    893.45627330	    372.06270533	   -316.49669917	    134.15867680	    -15.64691777	    360.12309414	   -305.74929907	   -138.75239189	    -83.74106660	      4.52333243	    -10.57951817	      1.01681541	    305.74929907	    138.75239189	     83.74106660	    -37.16998808	      7.50276336	    123.27822402	      0.95560198	      0.00000000	    960.00554679	    605.88109727	     23.97920679	      9.38980259	      0.00000000	      0.00000000	      0.00000000	      0.00000000	      0.00000000	      0.00000000	      0.00000001	      0.00000000
      0.20939919	      9.71854268	      7.15259477	      7.67849687	      3.32370779	      3.90067188	      4.10890452	      0.00000000	    163.96237510	    182.41813918	    340.32203652	    122.52979789	      7.10583976	      5.16577003	      3.67923416	      3.11015781	      5.17504280	      3.34690294	      2.80256550	     92.81635888	      4.61615052	      7.01968596	      5.26187127	     25.35599391	     16.03286075	      4.55565673	      3.29553186	      5.57464829	     83.82882558	     40.81865191	     29.48796092	     56.10568487	      0.00000000	      0.00000000	      0.00000000	      0.00000000	      0.00000000	      0.00000000	     35.71704536	      1.31861220	      3.06686058	     22.89828634	     48.92005993	     11.87987408	      9.71854268	      7.15259477	      7.67849687	      3.32370779	      3.90067188	      4.10890452	     10.58373977	      5.24587267	     10.26649981	      9.06601359	      1.89774210	      7.10583976	      5.16577003	      3.67923416	      3.11015781	      5.17504280	      4.83244171	      2.80256550	      1.95399492	      4.61615052	      7.01968596	      5.26187127	     25.35599391	     16.03286075	      4.55565673	      3.29553186	      5.57464829	     14.20868582	      0.00000000	      0.00000000	      0.00000000	     19.33835125	      9.03423892	     43.00490873	     47.28568558	      4.18188494	      3.64237282	     11.13321452	      5.89116940	     15.83668575	      2.48004612	      7.87283748	      2.52156373	     31.27454574	     31.27454574	     11.47858020	     11.47858020	     29.03406416	     29.03406416	    152.90563837	     95.54098118	      9.49681192	     -5.97770049	      3.56231305	     60.68419752	   -152.90563837	    -95.54098118	     -9.49681192	      2.48711849	     -4.22728629	      2.20657783	      0.04865768	      0.00115913	     -0.03046884	      0.01213136	     -0.00075589	      0.01934399	     -0.04865768	     -0.00115913	      0.03046884	     -0.00011254	      0.00145243	     -0.00012385	   -897.43435244	   -372.73644219	    317.20330967	     -8.33447624	     21.90357097	      2.35451278	    897.43435244	    372.73644219	   -317.20330967	    134.42042069	    -15.69363477	    361.66605043	   -306.27167038	   -138.37384477	    -84.16486279	      4.50552679	    -10.61802245	      1.06429449	    306.27167038	    138.37384477	     84.16486279	    -37.32815632	      7.51964776	    123.46956969	      0.08069562	      0.00000000	    964.61072563	    609.86984072	     23.33794257	      9.07434401	      0.00000000	      0.00000000	      0.00000000	      0.00000000	      0.00000000	      0.00000000	      0.00000001	      0.00000000
